<svg width="40" height="40" viewBox="0 0 40 40" fill="none" xmlns="http://www.w3.org/2000/svg">
<path d="M30.7833 3.33337H24.1167C21.517 3.33337 19.3883 5.67304 19.1407 8.25075C19.1143 8.52562 19.3405 8.75004 19.6167 8.75004H27.45C28.1333 8.75004 28.7 9.31671 28.7 10C28.7 10.6834 28.1333 11.25 27.45 11.25H19.6167C19.3405 11.25 19.1167 11.4739 19.1167 11.75V14.9167C19.1167 15.1929 19.3405 15.4167 19.6167 15.4167H23.8C24.4833 15.4167 25.05 15.9834 25.05 16.6667C25.05 17.35 24.4833 17.9167 23.8 17.9167H19.6167C19.3405 17.9167 19.1167 18.1406 19.1167 18.4167V21.505C19.1167 21.7792 19.3375 22.0022 19.6117 22.005L27.45 22.0834C28.15 22.0834 28.7 22.65 28.7 23.35C28.6833 24.0334 28.1333 24.5834 27.45 24.5834C27.4333 24.5834 27.4333 24.5834 27.4333 24.5834L19.6217 24.5051C19.3436 24.5023 19.1167 24.727 19.1167 25.0051V28.25C19.1167 28.5262 19.3405 28.75 19.6167 28.75H25.6167C26.3167 28.75 26.8667 29.3167 26.8667 30C26.8667 30.6834 26.3167 31.25 25.6167 31.25H19.6167C19.3405 31.25 19.1143 31.4745 19.1407 31.7493C19.3883 34.327 21.517 36.6667 24.1167 36.6667H30.7833C33.5333 36.6667 35.7833 34.4334 35.7833 31.6667V8.33337C35.7833 5.56671 33.5333 3.33337 30.7833 3.33337Z" fill="#111111"/>
<path d="M14.0667 8.25004V9.91671C14.0667 10.1928 13.8428 10.4167 13.5667 10.4167H4.71666C4.44052 10.4167 4.21666 10.1928 4.21666 9.91671V8.25004C4.21666 5.55004 6.43333 3.33337 9.14999 3.33337C11.85 3.33337 14.0667 5.55004 14.0667 8.25004Z" fill="#111111"/>
<path d="M4.21666 29.85C4.21666 30.6 4.53333 31.75 4.93333 32.3833L6.28333 34.65C7.86666 37.2833 10.4333 37.2833 12 34.65L13.3667 32.3833C13.75 31.75 14.0667 30.6 14.0667 29.85V13.4166C14.0667 13.1405 13.8428 12.9166 13.5667 12.9166H4.71666C4.44052 12.9166 4.21666 13.1405 4.21666 13.4166V29.85Z" fill="#111111"/>
</svg>
