<svg width="40" height="40" viewBox="0 0 40 40" fill="none" xmlns="http://www.w3.org/2000/svg">
<path d="M23.3333 26.6666C23.3333 29.6166 22.05 32.2833 20 34.0999C18.2333 35.6999 15.9 36.6666 13.3333 36.6666C7.81665 36.6666 3.33331 32.1833 3.33331 26.6666C3.33331 23.1551 5.16324 20.0602 7.90945 18.2814C8.16411 18.1164 8.49968 18.2351 8.62513 18.5114C10.1556 21.8822 13.1339 24.4165 16.7 25.3833C17.75 25.6833 18.85 25.8333 20 25.8333C20.9403 25.8333 21.8348 25.73 22.7024 25.5425C22.9891 25.4806 23.2757 25.6657 23.3018 25.9579C23.3228 26.1935 23.3333 26.4327 23.3333 26.6666Z" fill="#111111"/>
<path d="M30 13.3334C30 14.6334 29.75 15.8834 29.3 17.0167C28.15 19.9167 25.6833 22.15 22.6333 22.9834C21.8 23.2167 20.9167 23.3334 20 23.3334C19.0833 23.3334 18.2 23.2167 17.3667 22.9834C14.3167 22.15 11.85 19.9167 10.7 17.0167C10.25 15.8834 10 14.6334 10 13.3334C10 7.81671 14.4833 3.33337 20 3.33337C25.5167 3.33337 30 7.81671 30 13.3334Z" fill="#111111"/>
<path d="M36.6667 26.6666C36.6667 32.1833 32.1833 36.6666 26.6667 36.6666C25.2627 36.6666 23.9191 36.377 22.7077 35.8492C22.3951 35.713 22.3363 35.3054 22.5678 35.0551C24.6642 32.7883 25.8333 29.7996 25.8333 26.6666C25.8333 26.0999 25.7833 25.5333 25.7 24.9999L25.6752 24.8459C25.6404 24.6301 25.7502 24.4176 25.9427 24.3142C28.3233 23.035 30.2463 21.0048 31.3752 18.5122C31.5005 18.2356 31.8363 18.1167 32.0911 18.2818C34.837 20.0606 36.6667 23.1554 36.6667 26.6666Z" fill="#111111"/>
</svg>
