<svg width="40" height="40" viewBox="0 0 40 40" fill="none" xmlns="http://www.w3.org/2000/svg">
<path d="M20 3.33337H14.45C11.3833 3.33337 8.90004 5.81668 8.90004 8.88335C8.90004 11.95 11.3833 14.4334 14.45 14.4334H20V3.33337Z" fill="#111111"/>
<path d="M20 14.4501H14.45C11.3833 14.4501 8.90004 16.9334 8.90004 20.0001C8.90004 23.0667 11.3833 25.55 14.45 25.55H20V14.4501Z" fill="#111111"/>
<path d="M20 25.5499H14.45C11.3833 25.5499 8.90004 28.0333 8.90004 31.1C8.90004 34.1666 11.3833 36.6499 14.45 36.6499C17.5166 36.6499 20 34.1666 20 31.1V25.5499Z" fill="#111111"/>
<path d="M20 3.33337H25.55C28.6167 3.33337 31.1 5.81668 31.1 8.88335C31.1 11.95 28.6167 14.4334 25.55 14.4334H20V3.33337Z" fill="#111111"/>
<path d="M25.55 14.4501C28.6167 14.4501 31.1 16.9334 31.1 20.0001C31.1 23.0667 28.6167 25.55 25.55 25.55C22.4834 25.55 20 23.0667 20 20.0001C20 16.9334 22.4834 14.4501 25.55 14.4501Z" fill="#111111"/>
</svg>
