<svg width="40" height="40" viewBox="0 0 40 40" fill="none" xmlns="http://www.w3.org/2000/svg">
<path d="M27.5167 8.35004L24.25 5.08337C21.9167 2.75004 18.0833 2.75004 15.75 5.08337L12.4833 8.35004C11.8333 9.00004 11.8333 10.0667 12.4833 10.7167L18.8333 17.0667C19.4833 17.7167 20.5333 17.7167 21.1833 17.0667L27.5333 10.7167C28.1667 10.0667 28.1667 9.00004 27.5167 8.35004Z" fill="#111111"/>
<path d="M8.35001 12.4833L5.08334 15.75C2.75001 18.0833 2.75001 21.9167 5.08334 24.25L8.35001 27.5167C9.00001 28.1667 10.05 28.1667 10.7 27.5167L17.05 21.1667C17.7 20.5167 17.7 19.4667 17.05 18.8167L10.7167 12.4833C10.0667 11.8333 9.00001 11.8333 8.35001 12.4833Z" fill="#111111"/>
<path d="M34.9167 15.75L31.65 12.4833C31 11.8333 29.95 11.8333 29.3 12.4833L22.95 18.8334C22.3 19.4834 22.3 20.5334 22.95 21.1834L29.3 27.5334C29.95 28.1834 31 28.1834 31.65 27.5334L34.9167 24.2667C37.25 21.9167 37.25 18.0834 34.9167 15.75Z" fill="#111111"/>
<path d="M12.4833 31.65L15.75 34.9167C18.0833 37.25 21.9167 37.25 24.25 34.9167L27.5167 31.65C28.1667 31 28.1667 29.95 27.5167 29.3L21.1667 22.95C20.5167 22.3 19.4667 22.3 18.8167 22.95L12.4667 29.3C11.8333 29.9334 11.8333 31 12.4833 31.65Z" fill="#111111"/>
</svg>
