<svg width="40" height="40" viewBox="0 0 40 40" fill="none" xmlns="http://www.w3.org/2000/svg">
<path d="M19.1667 3.33337C10.4333 3.33337 3.33334 10.4334 3.33334 19.1667C3.33334 27.9 10.4333 35 19.1667 35C27.9 35 35 27.9 35 19.1667C35 10.4334 27.9 3.33337 19.1667 3.33337ZM19.1667 22.9167H14.1667C13.4833 22.9167 12.9167 22.35 12.9167 21.6667C12.9167 20.9834 13.4833 20.4167 14.1667 20.4167H19.1667C19.85 20.4167 20.4167 20.9834 20.4167 21.6667C20.4167 22.35 19.85 22.9167 19.1667 22.9167ZM24.1667 17.9167H14.1667C13.4833 17.9167 12.9167 17.35 12.9167 16.6667C12.9167 15.9834 13.4833 15.4167 14.1667 15.4167H24.1667C24.85 15.4167 25.4167 15.9834 25.4167 16.6667C25.4167 17.35 24.85 17.9167 24.1667 17.9167Z" fill="#111111"/>
<path d="M35.5009 36.6644C35.2009 36.6644 34.9009 36.5477 34.6842 36.331L31.5842 33.231C31.1342 32.781 31.1342 32.0477 31.5842 31.581C32.0342 31.131 32.7676 31.131 33.2342 31.581L36.3342 34.681C36.7842 35.131 36.7842 35.8644 36.3342 36.331C36.1009 36.5477 35.8009 36.6644 35.5009 36.6644Z" fill="#111111"/>
</svg>
